<?xml version="1.0" encoding="UTF-8" standalone="no"?>
<!-- Created with Inkscape (http://www.inkscape.org/) -->

<svg width="31.606319pc" height="23.68502pc" viewBox="0 0 133.8001 100.2666" version="1.1" id="svg5"
   inkscape:version="1.1.1 (3bf5ae0d25, 2021-09-20)" sodipodi:docname="white wifi.svg"
   xmlns:inkscape="http://www.inkscape.org/namespaces/inkscape"
   xmlns:sodipodi="http://sodipodi.sourceforge.net/DTD/sodipodi-0.dtd" xmlns="http://www.w3.org/2000/svg"
   xmlns:svg="http://www.w3.org/2000/svg">
   <sodipodi:namedview id="namedview7" pagecolor="#ffffff" bordercolor="#666666" borderopacity="1.0"
      inkscape:pageshadow="2" inkscape:pageopacity="0.0" inkscape:pagecheckerboard="0" inkscape:document-units="mm"
      showgrid="false" units="pc" inkscape:zoom="0.49887767" inkscape:cx="395.88864" inkscape:cy="239.53768"
      inkscape:window-width="1287" inkscape:window-height="745" inkscape:window-x="-8" inkscape:window-y="-8"
      inkscape:window-maximized="1" inkscape:current-layer="layer1" />
   <defs id="defs2" />
   <g inkscape:label="Layer 1" inkscape:groupmode="layer" id="layer1">
      <path
         d="m 13.603145,39.324434 c 13.681919,-13.12671 32.24174,-21.19705 52.705133,-21.19705 20.463395,0 39.023212,8.07034 52.705132,21.19705 2.53808,2.41913 6.54352,2.33981 8.96264,-0.17845 2.41912,-2.51827 2.33981,-6.54353 -0.17846,-8.96265 C 111.85518,14.855624 90.182236,5.4369043 66.308278,5.4369043 c -23.873959,0 -45.546912,9.4187197 -61.5091512,24.7265997 -2.518267,2.43895 -2.597582,6.44438 -0.178459,8.98248 2.4191211,2.53809 6.4443812,2.61741 8.9626472,0.17845 z m 52.705133,10.52914 c 11.262797,0 21.534154,4.18388 29.386386,11.10416 2.637229,2.31998 6.642666,2.06221 8.962636,-0.55521 2.31998,-2.61741 2.0622,-6.64267 -0.5552,-8.96265 -10.073062,-8.88333 -23.318749,-14.27678 -37.793822,-14.27678 -14.475075,0 -27.720759,5.39345 -37.773995,14.27678 -2.63724,2.31998 -2.875187,6.32541 -0.555209,8.96265 2.319978,2.63725 6.32541,2.87519 8.962649,0.55521 7.832404,-6.92028 18.103757,-11.10416 29.386383,-11.10416 z m 12.690476,31.72619 c 0,-6.9996 -5.690886,-12.69048 -12.690476,-12.69048 -6.999591,0 -12.690476,5.69088 -12.690476,12.69048 0,6.99958 5.690885,12.69047 12.690476,12.69047 6.99959,0 12.690476,-5.69089 12.690476,-12.69047 z"
         id="path824" style="stroke-width:0.198288;fill:#ffffff" />
   </g>
</svg>